<?xml version="1.0" encoding="utf-8"?>
<svg version="1.1" xmlns:xlink="http://www.w3.org/1999/xlink" width="400px" height="40px" xmlns="http://www.w3.org/2000/svg">
  <g transform="matrix(1 0 0 1 0 -85 )">
    <path d="M 213.549952287059 39.8376470703125  C 213.549952287059 39.89220234375  213.546989131811 39.9463383593749  213.541154935747 40  L 217.313199120943 40  C 217.30736492488 39.9463383593749  217.304401769631 39.89220234375  217.304401769631 39.8376470703125  C 217.304401769631 38.4926710546875  219.105392045122 37.4023529296875  221.327026196164 37.4023529296875  C 223.548660302684 37.4023529296875  225.349650622696 38.4926710546875  225.349650622696 39.8376470703125  C 225.349650622696 39.89220234375  225.346687422927 39.9463383593749  225.340853226863 40  L 229.649247389022 40  C 229.643413192959 39.9463383593749  229.640449993189 39.89220234375  229.640449993189 39.8376470703125  C 229.640449993189 38.4926710546875  231.441440313201 37.4023529296875  233.663074464243 37.4023529296875  C 235.884708570763 37.4023529296875  237.685698890775 38.4926710546875  237.685698890775 39.8376470703125  C 237.685698890775 39.89220234375  237.682735691006 39.9463383593749  237.676901494942 40  L 241.985295657101 40  C 241.979461461038 39.9463383593749  241.976498261268 39.89220234375  241.976498261268 39.8376470703125  C 241.976498261268 38.4926710546875  243.77748858128 37.4023529296875  245.999122732322 37.4023529296875  C 248.220756838842 37.4023529296875  250.021747158854 38.4926710546875  250.021747158854 39.8376470703125  C 250.021747158854 39.89220234375  250.018783959085 39.9463383593749  250.012949763021 40  L 253.248644060296 40  C 253.242809864233 39.9463383593749  253.239846708984 39.89220234375  253.239846708984 39.8376470703125  C 253.239846708984 38.4926710546875  255.040837028996 37.4023529296875  257.262471135517 37.4023529296875  C 259.484105242037 37.4023529296875  261.285095562049 38.4926710546875  261.285095562049 39.8376470703125  C 261.285095562049 39.89220234375  261.282132406801 39.9463383593749  261.276298210737 40  L 265.584692328375 40  C 265.578858132312 39.9463383593749  265.575894977063 39.89220234375  265.575894977063 39.8376470703125  C 265.575894977063 38.4926710546875  267.376885074469 37.4023529296875  269.598519403596 37.4023529296875  C 271.820153732722 37.4023529296875  273.621143830128 38.4926710546875  273.621143830128 39.8376470703125  C 273.621143830128 39.89220234375  273.618180496795 39.9463383593749  273.61234661238 40  L 277.920740418369 40  C 277.914906578476 39.9463383593749  277.911943245142 39.89220234375  277.911943245142 39.8376470703125  C 277.911943245142 38.4926710546875  279.712933342548 37.4023529296875  281.934567671675 37.4023529296875  C 284.156202000801 37.4023529296875  285.957192098207 38.4926710546875  285.957192098207 39.8376470703125  C 285.957192098207 39.89220234375  285.954228764874 39.9463383593749  285.948394880459 40  L 290.256788686448 40  C 290.250954846555 39.9463383593749  290.247991513221 39.89220234375  290.247991513221 39.8376470703125  C 290.247991513221 38.4926710546875  292.048981610627 37.4023529296875  294.270615939754 37.4023529296875  C 296.49225026888 37.4023529296875  298.293240366286 38.4926710546875  298.293240366286 39.8376470703125  C 298.293240366286 39.89220234375  298.290277032953 39.9463383593749  298.284443148538 40  L 302.056487066607 40  C 302.050653182192 39.9463383593749  302.047689848858 39.89220234375  302.047689848858 39.8376470703125  C 302.047689848858 38.4926710546875  303.848679946264 37.4023529296875  306.070314275391 37.4023529296875  C 308.291948604517 37.4023529296875  310.092938701923 38.4926710546875  310.092938701923 39.8376470703125  C 310.092938701923 39.89220234375  310.08997536859 39.9463383593749  310.084141484175 40  L 314.392535290164 40  C 314.38670145027 39.9463383593749  314.383738116937 39.89220234375  314.383738116937 39.8376470703125  C 314.383738116937 38.4926710546875  316.184728214343 37.4023529296875  318.40636254347 37.4023529296875  C 320.627996872596 37.4023529296875  322.428986970002 38.4926710546875  322.428986970002 39.8376470703125  C 322.428986970002 39.89220234375  322.426023636669 39.9463383593749  322.420189752254 40  L 326.728583558243 40  C 326.72274971835 39.9463383593749  326.719786385016 39.89220234375  326.719786385016 39.8376470703125  C 326.719786385016 38.4926710546875  328.520776482422 37.4023529296875  330.742410811549 37.4023529296875  C 332.964045140675 37.4023529296875  334.765035238081 38.4926710546875  334.765035238081 39.8376470703125  C 334.765035238081 39.89220234375  334.762071904748 39.9463383593749  334.756238020332 40  L 339.064631826322 40  C 339.058797941907 39.9463383593749  339.055834608574 39.89220234375  339.055834608574 39.8376470703125  C 339.055834608574 38.4926710546875  340.856824750501 37.4023529296875  343.078459079627 37.4023529296875  C 345.300093408754 37.4023529296875  347.10108350616 38.4926710546875  347.10108350616 39.8376470703125  C 347.10108350616 39.89220234375  347.098120172827 39.9463383593749  347.092286288411 40  L 350.327980274038 40  C 350.322146389623 39.9463383593749  350.31918305629 39.89220234375  350.31918305629 39.8376470703125  C 350.31918305629 38.4926710546875  352.120173153696 37.4023529296875  354.341807482823 37.4023529296875  C 356.563441811949 37.4023529296875  358.364431909355 38.4926710546875  358.364431909355 39.8376470703125  C 358.364431909355 39.89220234375  358.361468576022 39.9463383593749  358.355634691607 40  L 362.664028542117 40  C 362.658194657702 39.9463383593749  362.655231324369 39.89220234375  362.655231324369 39.8376470703125  C 362.655231324369 38.4926710546875  364.456221421775 37.4023529296875  366.677855750901 37.4023529296875  C 368.899490080028 37.4023529296875  370.700480177434 38.4926710546875  370.700480177434 39.8376470703125  C 370.700480177434 39.89220234375  370.697516844101 39.9463383593749  370.691682959685 40  L 376.598114235777 40  C 378.969080708434 40  380.891128760267 38.3131590624999  380 36.236896953125  L 380 0  L 0 0  L 0 36.236896953125  C 0.0826822916666534 38.3152014062499  2.00725492007211 40  4.37569681615583 40  L 11.3548279126102 40  C 11.3489940281951 39.9463383593749  11.3460306948618 39.89220234375  11.3460306948618 39.8376470703125  C 11.3460306948618 38.4926710546875  13.1470207922676 37.4023529296875  15.3686551213942 37.4023529296875  C 17.5902894950421 37.4023529296875  19.3912795924479 38.4926710546875  19.3912795924479 39.8376470703125  C 19.3912795924479 39.89220234375  19.3883162591146 39.9463383593749  19.3824823746995 40  L 23.1545262482472 40  C 23.1486923638321 39.9463383593749  23.1457290304988 39.89220234375  23.1457290304988 39.8376470703125  C 23.1457290304988 38.4926710546875  24.9467191724259 37.4023529296875  27.1683535015525 37.4023529296875  C 29.3899878306791 37.4023529296875  31.1909779280849 38.4926710546875  31.1909779280849 39.8376470703125  C 31.1909779280849 39.89220234375  31.1880145947516 39.9463383593749  31.1821807103365 40  L 35.4905745163261 40  C 35.4847406319111 39.9463383593749  35.4817772985777 39.89220234375  35.4817772985777 39.8376470703125  C 35.4817772985777 38.4926710546875  37.2827673959836 37.4023529296875  39.5044017696314 37.4023529296875  C 41.726036098758 37.4023529296875  43.5270261961638 38.4926710546875  43.5270261961638 39.8376470703125  C 43.5270261961638 39.89220234375  43.5240628628305 39.9463383593749  43.5182289784154 40  L 47.826622784405 40  C 47.82078889999 39.9463383593749  47.8178255666566 39.89220234375  47.8178255666566 39.8376470703125  C 47.8178255666566 38.4926710546875  49.6188156640625 37.4023529296875  51.8404499931891 37.4023529296875  C 54.0620843668369 37.4023529296875  55.8630744642428 38.4926710546875  55.8630744642428 39.8376470703125  C 55.8630744642428 39.89220234375  55.8601111309094 39.9463383593749  55.8542772464944 40  L 59.0899711876002 40  C 59.0841373477063 39.9463383593749  59.081174014373 39.89220234375  59.081174014373 39.8376470703125  C 59.081174014373 38.4926710546875  60.8821641117789 37.4023529296875  63.1037984409054 37.4023529296875  C 65.3254327700321 37.4023529296875  67.1264228674379 38.4926710546875  67.1264228674379 39.8376470703125  C 67.1264228674379 39.89220234375  67.1234595341046 39.9463383593749  67.1176256496895 40  L 71.426019455679 40  C 71.4201856157852 39.9463383593749  71.4172222824519 39.89220234375  71.4172222824519 39.8376470703125  C 71.4172222824519 38.4926710546875  73.2182123798577 37.4023529296875  75.4398467089844 37.4023529296875  C 77.661481038111 37.4023529296875  79.4624711355168 38.4926710546875  79.4624711355168 39.8376470703125  C 79.4624711355168 39.89220234375  79.4595078021835 39.9463383593749  79.4536739177684 40  L 83.7620677237581 40  C 83.7562338393429 39.9463383593749  83.7532705060097 39.89220234375  83.7532705060097 39.8376470703125  C 83.7532705060097 38.4926710546875  85.5542606479367 37.4023529296875  87.7758949770633 37.4023529296875  C 89.9975293061899 37.4023529296875  91.7985194035957 38.4926710546875  91.7985194035957 39.8376470703125  C 91.7985194035957 39.89220234375  91.7955560702624 39.9463383593749  91.7897221858474 40  L 96.0981159918369 40  C 96.0922821074219 39.9463383593749  96.0893187740885 39.89220234375  96.0893187740885 39.8376470703125  C 96.0893187740885 38.4926710546875  97.8903089160155 37.4023529296875  100.111943245142 37.4023529296875  C 102.333577574269 37.4023529296875  104.134567671675 38.4926710546875  104.134567671675 39.8376470703125  C 104.134567671675 39.89220234375  104.131604338341 39.9463383593749  104.125770453926 40  L 107.897814327474 40  C 107.89198048758 39.9463383593749  107.889017154247 39.89220234375  107.889017154247 39.8376470703125  C 107.889017154247 38.4926710546875  109.690007251653 37.4023529296875  111.911641580779 37.4023529296875  C 114.133275909906 37.4023529296875  115.934266007312 38.4926710546875  115.934266007312 39.8376470703125  C 115.934266007312 39.89220234375  115.931302673978 39.9463383593749  115.925468789563 40  L 120.233862595553 40  C 120.228028711138 39.9463383593749  120.225065377805 39.89220234375  120.225065377805 39.8376470703125  C 120.225065377805 38.4926710546875  122.026055519732 37.4023529296875  124.247689848858 37.4023529296875  C 126.469324177985 37.4023529296875  128.270314275391 38.4926710546875  128.270314275391 39.8376470703125  C 128.270314275391 39.89220234375  128.267350942057 39.9463383593749  128.261517057642 40  L 132.569910863632 40  C 132.564076979217 39.9463383593749  132.561113645883 39.89220234375  132.561113645883 39.8376470703125  C 132.561113645883 38.4926710546875  134.36210378781 37.4023529296875  136.583738116937 37.4023529296875  C 138.805372446064 37.4023529296875  140.60636254347 38.4926710546875  140.60636254347 39.8376470703125  C 140.60636254347 39.89220234375  140.603399210136 39.9463383593749  140.597565325721 40  L 144.905959131711 40  C 144.900125247296 39.9463383593749  144.897161913962 39.89220234375  144.897161913962 39.8376470703125  C 144.897161913962 38.4926710546875  146.698152011368 37.4023529296875  148.919786385016 37.4023529296875  C 151.141420714143 37.4023529296875  152.942410811549 38.4926710546875  152.942410811549 39.8376470703125  C 152.942410811549 39.89220234375  152.939447478215 39.9463383593749  152.9336135938 40  L 156.169307579427 40  C 156.163473695012 39.9463383593749  156.160510361679 39.89220234375  156.160510361679 39.8376470703125  C 156.160510361679 38.4926710546875  157.961500459085 37.4023529296875  160.183134788211 37.4023529296875  C 162.404768894732 37.4023529296875  164.205759214744 38.4926710546875  164.205759214744 39.8376470703125  C 164.205759214744 39.89220234375  164.202796059495 39.9463383593749  164.196961863431 40  L 168.50535598107 40  C 168.499521785006 39.9463383593749  168.496558629758 39.89220234375  168.496558629758 39.8376470703125  C 168.496558629758 38.4926710546875  170.29754894977 37.4023529296875  172.51918305629 37.4023529296875  C 174.740817162811 37.4023529296875  176.541807482823 38.4926710546875  176.541807482823 39.8376470703125  C 176.541807482823 39.89220234375  176.538844327574 39.9463383593749  176.533010086989 40  L 180.841404249149 40  C 180.835570053085 39.9463383593749  180.832606897837 39.89220234375  180.832606897837 39.8376470703125  C 180.832606897837 38.4926710546875  182.633597173327 37.4023529296875  184.855231324369 37.4023529296875  C 187.076865430889 37.4023529296875  188.877855750901 38.4926710546875  188.877855750901 39.8376470703125  C 188.877855750901 39.89220234375  188.874892551132 39.9463383593749  188.869058355068 40  L 193.177452517228 40  C 193.171618321164 39.9463383593749  193.168655121394 39.89220234375  193.168655121394 39.8376470703125  C 193.168655121394 38.4926710546875  194.969645441406 37.4023529296875  197.191279592448 37.4023529296875  C 199.412913698968 37.4023529296875  201.21390401898 38.4926710546875  201.21390401898 39.8376470703125  C 201.21390401898 39.89220234375  201.210940819211 39.9463383593749  201.205106623147 40  L 205.513500785307 40  C 205.507666589243 39.9463383593749  205.504703389473 39.89220234375  205.504703389473 39.8376470703125  C 205.504703389473 38.4926710546875  207.305693709485 37.4023529296875  209.527327860527 37.4023529296875  C 211.748961967047 37.4023529296875  213.549952287059 38.4926710546875  213.549952287059 39.8376470703125  Z " fill-rule="nonzero" fill="#73a0fa" stroke="none" transform="matrix(1 0 0 1 0 85 )" />
  </g>
</svg>